<svg width="44" height="44" viewBox="0 0 44 44" fill="none" xmlns="http://www.w3.org/2000/svg">
<g clip-path="url(#clip0_2_20)">
<path fill-rule="evenodd" clip-rule="evenodd" d="M22.0005 0.916748C16.7777 0.919458 11.7262 2.76925 7.74925 6.13537C3.77227 9.50149 1.12915 14.1644 0.292488 19.2904C-0.54417 24.4164 0.480189 29.6711 3.18242 34.1151C5.88465 38.559 10.0885 41.9023 15.0424 43.5472C16.1353 43.75 16.5469 43.0727 16.5469 42.4967C16.5469 41.9208 16.5251 40.2509 16.5178 38.4253C10.3975 39.7474 9.1043 35.8426 9.1043 35.8426C8.10612 33.3071 6.66349 32.6406 6.66349 32.6406C4.66713 31.2858 6.81287 31.3112 6.81287 31.3112C9.02416 31.4669 10.1863 33.5679 10.1863 33.5679C12.1462 36.9112 15.3338 35.9441 16.587 35.379C16.7837 33.9627 17.3557 32.9992 17.9859 32.4522C13.097 31.9016 7.96039 30.0253 7.96039 21.6434C7.93009 19.4695 8.74136 17.3673 10.2263 15.7717C10.0005 15.2211 9.24637 12.997 10.4413 9.97604C10.4413 9.97604 12.2883 9.38923 16.4923 12.2182C20.0982 11.2377 23.9027 11.2377 27.5087 12.2182C31.709 9.38923 33.5524 9.97604 33.5524 9.97604C34.7509 12.9898 33.9968 15.2138 33.771 15.7717C35.2606 17.3676 36.0736 19.4735 36.0405 21.6506C36.0405 30.0506 30.893 31.9016 25.9968 32.4413C26.7837 33.1223 27.4868 34.4517 27.4868 36.4946C27.4868 39.4214 27.4613 41.7759 27.4613 42.4967C27.4613 43.0799 27.8584 43.7609 28.9731 43.5472C33.9276 41.9021 38.1319 38.5582 40.834 34.1135C43.5362 29.6688 44.56 24.4133 43.7224 19.2868C42.8848 14.1604 40.2404 9.4974 36.2621 6.13186C32.2838 2.76632 27.2311 0.91774 22.0077 0.916748H22.0005Z" fill="black"/>
<path d="M8.33146 32.3254C8.2841 32.4341 8.10923 32.4667 7.96716 32.3906C7.82508 32.3145 7.71944 32.1733 7.77044 32.061C7.82145 31.9487 7.99267 31.9197 8.13474 31.9958C8.27682 32.0718 8.3861 32.2167 8.33146 32.3254Z" fill="white"/>
<path d="M9.22402 33.3142C9.14858 33.352 9.06226 33.3625 8.97986 33.344C8.89745 33.3255 8.82409 33.2791 8.77229 33.2127C8.63022 33.0606 8.60106 32.8505 8.71035 32.7563C8.81964 32.6622 9.01637 32.7056 9.15845 32.8578C9.30053 33.0099 9.33331 33.22 9.22402 33.3142Z" fill="white"/>
<path d="M10.0911 34.5711C9.95634 34.6653 9.72681 34.5711 9.59931 34.3827C9.56405 34.349 9.53602 34.3084 9.51686 34.2636C9.49771 34.2188 9.48782 34.1706 9.48782 34.1219C9.48782 34.0733 9.49771 34.0251 9.51686 33.9802C9.53602 33.9354 9.56405 33.8949 9.59931 33.8611C9.7341 33.7706 9.96362 33.8611 10.0911 34.0459C10.2186 34.2306 10.2223 34.4769 10.0911 34.5711Z" fill="white"/>
<path d="M11.2678 35.7881C11.1475 35.9221 10.9035 35.8859 10.7031 35.7048C10.5027 35.5237 10.4554 35.2774 10.5756 35.147C10.6958 35.0166 10.9399 35.0528 11.1475 35.2303C11.3552 35.4078 11.3953 35.6577 11.2678 35.7881Z" fill="white"/>
<path d="M12.918 36.4982C12.8634 36.6685 12.6156 36.7445 12.3679 36.6721C12.1202 36.5996 11.9562 36.3968 12.0036 36.2229C12.051 36.0491 12.3023 35.9694 12.5537 36.0491C12.8051 36.1287 12.9654 36.3207 12.918 36.4982Z" fill="white"/>
<path d="M14.7177 36.6213C14.7177 36.7988 14.5137 36.9509 14.2514 36.9546C13.9891 36.9582 13.7742 36.8133 13.7742 36.6358C13.7742 36.4583 13.9782 36.3062 14.2405 36.3026C14.5028 36.2989 14.7177 36.4402 14.7177 36.6213Z" fill="white"/>
<path d="M16.3935 36.3423C16.4263 36.5198 16.2441 36.7046 15.9818 36.748C15.7195 36.7915 15.49 36.6865 15.4572 36.5126C15.4244 36.3387 15.6139 36.1504 15.8689 36.1033C16.1239 36.0562 16.3607 36.1649 16.3935 36.3423Z" fill="white"/>
</g>
<defs>
<clipPath id="clip0_2_20">
<rect width="44" height="44" fill="white"/>
</clipPath>
</defs>
</svg>
