<svg width="47" height="47" viewBox="0 0 47 47" fill="none" xmlns="http://www.w3.org/2000/svg">
<g clip-path="url(#clip0_5_56)">
<path fill-rule="evenodd" clip-rule="evenodd" d="M32.9849 12.8235C30.5584 10.5093 27.3203 9.24863 23.97 9.30044C17.8392 9.30044 12.6323 13.4365 10.7758 19.006C9.79143 21.9246 9.79142 25.0852 10.7758 28.0038H10.7844C12.6496 33.5647 17.8478 37.7008 23.9786 37.7008C27.1433 37.7008 29.8603 36.8913 31.966 35.4616V35.4558C34.4442 33.8151 36.1367 31.2333 36.6634 28.3147H23.97V19.2653H46.136C46.4123 20.8368 46.5418 22.4429 46.5418 24.0404C46.5418 31.188 43.9874 37.231 39.5428 41.3239L39.5474 41.3275C35.6531 44.9196 30.308 47.0006 23.97 47.0006C15.0846 47.0006 6.95914 41.9924 2.96979 34.0569C-0.363271 27.4166 -0.363263 19.5933 2.96982 12.9531C6.95916 5.00893 15.0846 0.000607075 23.97 0.000607075C29.8072 -0.0684725 35.4458 2.1248 39.6942 6.11415L32.9849 12.8235Z" fill="black" fill-opacity="0.7"/>
</g>
<defs>
<clipPath id="clip0_5_56">
<rect width="47" height="47" fill="white"/>
</clipPath>
</defs>
</svg>
