<svg width="75" height="75" viewBox="0 0 75 75" fill="none" xmlns="http://www.w3.org/2000/svg">
<path d="M40.6187 68.75H34.3687V59.375H40.6187V68.75ZM57.3812 61.8062L50.7531 55.1781L55.1719 50.7594L61.8031 57.3906L57.3875 61.8062H57.3812ZM17.6062 61.8062L13.1844 57.3875L19.8094 50.7562L24.2312 55.175L17.6062 61.8031V61.8062ZM37.4937 53.1469C28.853 53.1434 21.8508 46.1365 21.8531 37.4958C21.8554 28.8551 28.8614 21.852 37.5021 21.8531C46.1428 21.8543 53.1469 28.8593 53.1469 37.5C53.1382 46.1404 46.1341 53.1417 37.4937 53.1469ZM37.4937 28.1031C32.3048 28.1066 28.1008 32.3152 28.1031 37.5042C28.1054 42.6931 32.3131 46.898 37.5021 46.8969C42.691 46.8957 46.8969 42.6889 46.8969 37.5C46.8917 32.31 42.6838 28.1048 37.4937 28.1031ZM68.7437 40.625H59.3687V34.375H68.7437V40.625ZM15.6187 40.625H6.24374V34.375H15.6187V40.625ZM55.1687 24.2437L50.7531 19.8219L57.3812 13.1906L61.8031 17.6125L55.1719 24.2406L55.1687 24.2437ZM19.8156 24.2437L13.1906 17.6156L17.6125 13.1969L24.2375 19.8281L19.8187 24.2406L19.8156 24.2437ZM40.6187 15.625H34.3687V6.25H40.6187V15.625Z" fill="black"/>
</svg>
