<svg width="75" height="75" viewBox="0 0 75 75" fill="none" xmlns="http://www.w3.org/2000/svg">
<path d="M6.25 12.5V56.25L21.25 45C22.3307 44.1864 23.6473 43.7475 25 43.75H50C53.4518 43.75 56.25 40.9518 56.25 37.5V12.5C56.25 9.04822 53.4518 6.25 50 6.25H12.5C9.04822 6.25 6.25 9.04822 6.25 12.5ZM12.5 43.75V12.5H50V37.5H22.9188C21.5658 37.4964 20.2489 37.9353 19.1687 38.75L12.5 43.75Z" fill="#FAFAFA"/>
<path d="M68.75 68.75V28.125C68.75 24.6732 65.9518 21.875 62.5 21.875V56.25L55.8312 51.25C54.7511 50.4353 53.4342 49.9964 52.0813 50H21.875C21.875 53.4518 24.6732 56.25 28.125 56.25H50C51.3527 56.2475 52.6693 56.6864 53.75 57.5L68.75 68.75Z" fill="#FAFAFA"/>
</svg>
